<svg width="117" height="31" viewBox="0 0 117 31" fill="none" xmlns="http://www.w3.org/2000/svg">
<path d="M4.17188 23.1875C3.15104 23.1875 2.34375 22.8854 1.75 22.2812C1.08333 21.6146 0.75 20.6406 0.75 19.3594C0.75 18.7552 0.833333 18.0573 1 17.2656L4.42188 1.23438L9.15625 0.59375L5.48438 17.875C5.40104 18.1458 5.35938 18.4896 5.35938 18.9062C5.35938 19.3438 5.45833 19.651 5.65625 19.8281C5.86458 20.0052 6.19792 20.0938 6.65625 20.0938C6.96875 20.0938 7.27083 20.026 7.5625 19.8906C7.86458 19.7448 8.14062 19.5469 8.39062 19.2969C8.90104 18.7865 9.28646 18.1094 9.54688 17.2656H10.8906C10.3177 18.8802 9.59896 20.1667 8.73438 21.125C8.00521 21.9062 7.18229 22.4688 6.26562 22.8125C5.59896 23.0625 4.90104 23.1875 4.17188 23.1875ZM17.1462 5.26562C16.8025 5.26562 16.4744 5.20312 16.1619 5.07812C15.8494 4.94271 15.5785 4.76042 15.3494 4.53125C15.1202 4.3125 14.9379 4.04688 14.8025 3.73438C14.6775 3.42188 14.615 3.09375 14.615 2.75C14.615 2.40625 14.6775 2.07812 14.8025 1.76562C14.9379 1.45312 15.1202 1.17708 15.3494 0.9375C15.5785 0.697917 15.8494 0.515625 16.1619 0.390625C16.4744 0.255208 16.8025 0.1875 17.1462 0.1875C17.49 0.1875 17.8181 0.255208 18.1306 0.390625C18.4431 0.515625 18.7192 0.697917 18.9587 0.9375C19.1983 1.17708 19.3806 1.45312 19.5056 1.76562C19.641 2.07812 19.7087 2.40625 19.7087 2.75C19.7087 3.09375 19.641 3.42188 19.5056 3.73438C19.3806 4.04688 19.1983 4.3125 18.9587 4.53125C18.7192 4.76042 18.4431 4.94271 18.1306 5.07812C17.8181 5.20312 17.49 5.26562 17.1462 5.26562ZM14.9744 23.1875C13.9535 23.1875 13.1462 22.8854 12.5525 22.2812C11.8858 21.6146 11.5525 20.6406 11.5525 19.3594C11.5525 18.7552 11.6358 18.0573 11.8025 17.2656L13.9744 7H18.5837L16.2869 17.875C16.2035 18.1458 16.1619 18.4896 16.1619 18.9062C16.1619 19.3438 16.2608 19.651 16.4587 19.8281C16.6671 20.0052 17.0004 20.0938 17.4587 20.0938C17.7712 20.0938 18.0733 20.026 18.365 19.8906C18.6671 19.7448 18.9431 19.5469 19.1931 19.2969C19.7035 18.7865 20.089 18.1094 20.3494 17.2656H21.6931C21.1202 18.8802 20.4015 20.1667 19.5369 21.125C18.8077 21.9062 17.9848 22.4688 17.0681 22.8125C16.4015 23.0625 15.7035 23.1875 14.9744 23.1875ZM34.1519 23.1875C32.829 23.1875 31.8498 22.8125 31.2144 22.0625C30.6623 21.4167 30.3862 20.5885 30.3862 19.5781C30.3862 19.099 30.4435 18.5417 30.5581 17.9062C30.6831 17.2708 30.8654 16.4531 31.105 15.4531C31.3446 14.4323 31.5217 13.6198 31.6362 13.0156C31.7612 12.401 31.8237 11.8698 31.8237 11.4219C31.8237 10.3281 31.4383 9.78125 30.6675 9.78125C30.1258 9.78125 29.6258 10.0677 29.1675 10.6406C28.7821 11.1302 28.4487 11.8281 28.1675 12.7344L25.9956 23H21.3862L24.7769 7H29.3862L29.0425 8.65625C29.6675 7.95833 30.3394 7.46875 31.0581 7.1875C31.5894 6.97917 32.1623 6.875 32.7769 6.875C33.8602 6.875 34.7144 7.15625 35.3394 7.71875C36.006 8.33333 36.3394 9.25521 36.3394 10.4844C36.3394 11.224 36.204 12.1875 35.9331 13.375C35.8602 13.7188 35.7404 14.2344 35.5737 14.9219C35.2717 16.0781 35.0529 17 34.9175 17.6875C34.8342 18.125 34.7925 18.4792 34.7925 18.75C34.7925 19.1771 34.8862 19.5104 35.0737 19.75C35.2717 19.9792 35.605 20.0938 36.0737 20.0938C36.7092 20.0938 37.2456 19.8333 37.6831 19.3125C38.0165 18.9167 38.3758 18.2344 38.7612 17.2656H40.105C39.3133 19.6094 38.3133 21.25 37.105 22.1875C36.2508 22.8542 35.2665 23.1875 34.1519 23.1875ZM46.6575 31C46.1575 31 45.6888 30.9323 45.2513 30.7969C44.8242 30.6719 44.4544 30.4792 44.1419 30.2188C43.8085 29.9583 43.5481 29.6302 43.3606 29.2344C43.1731 28.849 43.0794 28.401 43.0794 27.8906C43.0794 26.6823 43.6471 25.6458 44.7825 24.7812C45.6367 24.1458 46.8085 23.5938 48.2981 23.125L48.6888 21.4375C47.595 22.6042 46.3138 23.1875 44.845 23.1875C43.6263 23.1875 42.6419 22.8073 41.8919 22.0469C41.0169 21.151 40.5794 19.8177 40.5794 18.0469C40.5794 17.2969 40.6575 16.5052 40.8138 15.6719C40.9596 14.8385 41.1783 14.0156 41.47 13.2031C42.1367 11.3698 43.0481 9.89062 44.2044 8.76562C45.5377 7.48438 47.0742 6.84375 48.8138 6.84375C49.6783 6.84375 50.3242 6.99479 50.7513 7.29688C51.1888 7.58854 51.4075 7.97917 51.4075 8.46875V8.65625L51.7513 7H56.3606L53.1888 21.8438C54.1992 21.5104 55.0065 21.0104 55.6106 20.3438C56.2669 19.625 56.8033 18.599 57.22 17.2656H58.5638C57.9908 19.1615 57.1367 20.625 56.0013 21.6562C55.1679 22.4062 54.1367 22.9375 52.9075 23.25L52.4231 25.5625C52.0169 27.6042 51.2044 29.0833 49.9856 30C49.1002 30.6667 47.9908 31 46.6575 31ZM46.9231 20.0938C47.3815 20.0938 47.8658 19.8802 48.3763 19.4531C48.9283 18.974 49.2981 18.3542 49.4856 17.5938L51.1106 10.0156C51.1106 9.91146 51.0846 9.79167 51.0325 9.65625C50.9908 9.52083 50.9283 9.39583 50.845 9.28125C50.595 8.97917 50.246 8.82812 49.7981 8.82812C49.371 8.82812 48.9544 8.96875 48.5481 9.25C48.1523 9.53125 47.7773 9.92188 47.4231 10.4219C46.7981 11.3281 46.2825 12.5104 45.8763 13.9688C45.6888 14.6146 45.5481 15.2552 45.4544 15.8906C45.3606 16.5156 45.3138 17.0833 45.3138 17.5938C45.3138 18.6562 45.5117 19.375 45.9075 19.75C46.0429 19.8958 46.194 19.9896 46.3606 20.0312C46.5273 20.0729 46.7148 20.0938 46.9231 20.0938ZM45.9231 28.5C46.2565 28.5 46.6002 28.2656 46.9544 27.7969C47.3085 27.3385 47.5846 26.625 47.7825 25.6562L47.97 24.7344C47.0013 25.099 46.2773 25.4688 45.7981 25.8438C45.1627 26.3229 44.845 26.8594 44.845 27.4531C44.845 27.7344 44.9335 27.9688 45.1106 28.1562C45.3085 28.3854 45.5794 28.5 45.9231 28.5ZM62.6319 23.1875C61.611 23.1875 60.8037 22.8854 60.21 22.2812C59.5433 21.6146 59.21 20.6406 59.21 19.3594C59.21 18.7552 59.2933 18.0573 59.46 17.2656L61.6319 7H66.2412L63.9444 17.875C63.8819 18.1979 63.8506 18.5 63.8506 18.7812C63.8506 19.6562 64.1683 20.0938 64.8037 20.0938C65.3871 20.0938 65.9131 19.8281 66.3819 19.2969C66.7569 18.849 67.085 18.1719 67.3662 17.2656L69.5381 7H74.1475L71.8506 17.875C71.7569 18.1875 71.71 18.5312 71.71 18.9062C71.71 19.3438 71.8142 19.651 72.0225 19.8281C72.2308 20.0052 72.5642 20.0938 73.0225 20.0938C73.6162 20.0938 74.1475 19.8281 74.6162 19.2969C75.0329 18.8281 75.3662 18.151 75.6162 17.2656H76.96C76.3871 18.8906 75.6944 20.1771 74.8819 21.125C74.1944 21.9062 73.4183 22.4688 72.5537 22.8125C71.9183 23.0625 71.2465 23.1875 70.5381 23.1875C69.6215 23.1875 68.8923 22.9323 68.3506 22.4219C67.809 21.9115 67.4808 21.1562 67.3662 20.1562C66.6371 21.3229 65.8142 22.1562 64.8975 22.6562C64.2412 23.0104 63.486 23.1875 62.6319 23.1875ZM83.2 5.26562C82.8562 5.26562 82.5281 5.20312 82.2156 5.07812C81.9031 4.94271 81.6323 4.76042 81.4031 4.53125C81.174 4.3125 80.9917 4.04688 80.8562 3.73438C80.7312 3.42188 80.6687 3.09375 80.6687 2.75C80.6687 2.40625 80.7312 2.07812 80.8562 1.76562C80.9917 1.45312 81.174 1.17708 81.4031 0.9375C81.6323 0.697917 81.9031 0.515625 82.2156 0.390625C82.5281 0.255208 82.8562 0.1875 83.2 0.1875C83.5437 0.1875 83.8719 0.255208 84.1844 0.390625C84.4969 0.515625 84.7729 0.697917 85.0125 0.9375C85.2521 1.17708 85.4344 1.45312 85.5594 1.76562C85.6948 2.07812 85.7625 2.40625 85.7625 2.75C85.7625 3.09375 85.6948 3.42188 85.5594 3.73438C85.4344 4.04688 85.2521 4.3125 85.0125 4.53125C84.7729 4.76042 84.4969 4.94271 84.1844 5.07812C83.8719 5.20312 83.5437 5.26562 83.2 5.26562ZM81.0281 23.1875C80.0073 23.1875 79.2 22.8854 78.6062 22.2812C77.9396 21.6146 77.6062 20.6406 77.6062 19.3594C77.6062 18.7552 77.6896 18.0573 77.8562 17.2656L80.0281 7H84.6375L82.3406 17.875C82.2573 18.1458 82.2156 18.4896 82.2156 18.9062C82.2156 19.3438 82.3146 19.651 82.5125 19.8281C82.7208 20.0052 83.0542 20.0938 83.5125 20.0938C83.825 20.0938 84.1271 20.026 84.4187 19.8906C84.7208 19.7448 84.9969 19.5469 85.2469 19.2969C85.7573 18.7865 86.1427 18.1094 86.4031 17.2656H87.7469C87.174 18.8802 86.4552 20.1667 85.5906 21.125C84.8615 21.9062 84.0385 22.4688 83.1219 22.8125C82.4552 23.0625 81.7573 23.1875 81.0281 23.1875ZM100.206 23.1875C98.8827 23.1875 97.9035 22.8125 97.2681 22.0625C96.716 21.4167 96.44 20.5885 96.44 19.5781C96.44 19.099 96.4973 18.5417 96.6119 17.9062C96.7369 17.2708 96.9192 16.4531 97.1588 15.4531C97.3983 14.4323 97.5754 13.6198 97.69 13.0156C97.815 12.401 97.8775 11.8698 97.8775 11.4219C97.8775 10.3281 97.4921 9.78125 96.7213 9.78125C96.1796 9.78125 95.6796 10.0677 95.2213 10.6406C94.8358 11.1302 94.5025 11.8281 94.2213 12.7344L92.0494 23H87.44L90.8306 7H95.44L95.0963 8.65625C95.7213 7.95833 96.3931 7.46875 97.1119 7.1875C97.6431 6.97917 98.216 6.875 98.8306 6.875C99.914 6.875 100.768 7.15625 101.393 7.71875C102.06 8.33333 102.393 9.25521 102.393 10.4844C102.393 11.224 102.258 12.1875 101.987 13.375C101.914 13.7188 101.794 14.2344 101.628 14.9219C101.325 16.0781 101.107 17 100.971 17.6875C100.888 18.125 100.846 18.4792 100.846 18.75C100.846 19.1771 100.94 19.5104 101.128 19.75C101.325 19.9792 101.659 20.0938 102.128 20.0938C102.763 20.0938 103.299 19.8333 103.737 19.3125C104.07 18.9167 104.43 18.2344 104.815 17.2656H106.159C105.367 19.6094 104.367 21.25 103.159 22.1875C102.305 22.8542 101.32 23.1875 100.206 23.1875ZM112.399 5.26562C112.055 5.26562 111.727 5.20312 111.414 5.07812C111.102 4.94271 110.831 4.76042 110.602 4.53125C110.373 4.3125 110.19 4.04688 110.055 3.73438C109.93 3.42188 109.868 3.09375 109.868 2.75C109.868 2.40625 109.93 2.07812 110.055 1.76562C110.19 1.45312 110.373 1.17708 110.602 0.9375C110.831 0.697917 111.102 0.515625 111.414 0.390625C111.727 0.255208 112.055 0.1875 112.399 0.1875C112.743 0.1875 113.071 0.255208 113.383 0.390625C113.696 0.515625 113.972 0.697917 114.211 0.9375C114.451 1.17708 114.633 1.45312 114.758 1.76562C114.894 2.07812 114.961 2.40625 114.961 2.75C114.961 3.09375 114.894 3.42188 114.758 3.73438C114.633 4.04688 114.451 4.3125 114.211 4.53125C113.972 4.76042 113.696 4.94271 113.383 5.07812C113.071 5.20312 112.743 5.26562 112.399 5.26562ZM110.227 23.1875C109.206 23.1875 108.399 22.8854 107.805 22.2812C107.138 21.6146 106.805 20.6406 106.805 19.3594C106.805 18.7552 106.888 18.0573 107.055 17.2656L109.227 7H113.836L111.539 17.875C111.456 18.1458 111.414 18.4896 111.414 18.9062C111.414 19.3438 111.513 19.651 111.711 19.8281C111.92 20.0052 112.253 20.0938 112.711 20.0938C113.024 20.0938 113.326 20.026 113.618 19.8906C113.92 19.7448 114.196 19.5469 114.446 19.2969C114.956 18.7865 115.341 18.1094 115.602 17.2656H116.946C116.373 18.8802 115.654 20.1667 114.789 21.125C114.06 21.9062 113.237 22.4688 112.321 22.8125C111.654 23.0625 110.956 23.1875 110.227 23.1875Z" fill="#7C4A12"/>
</svg>
